TAS Beginner-Extrabold.ufo
<glyph name="exclam" format="2">
  <advance width="299"/>
  <unicode hex="0021"/>
  <outline>
    <contour>
      <point x="120" y="0" type="curve" smooth="yes"/>
      <point x="153" y="0"/>
      <point x="183" y="30"/>
      <point x="183" y="65" type="curve" smooth="yes"/>
      <point x="183" y="98"/>
      <point x="153" y="126"/>
      <point x="120" y="126" type="curve" smooth="yes"/>
      <point x="85" y="126"/>
      <point x="58" y="98"/>
      <point x="58" y="65" type="curve" smooth="yes"/>
      <point x="58" y="30"/>
      <point x="85" y="0"/>
    </contour>
    <contour>
      <point x="154" y="176" type="curve" smooth="yes"/>
      <point x="173" y="176"/>
      <point x="198" y="185"/>
      <point x="207" y="220" type="curve" smooth="yes"/>
      <point x="298" y="587" type="line" smooth="yes"/>
      <point x="309" y="633"/>
      <point x="283" y="650"/>
      <point x="252" y="650" type="curve" smooth="yes"/>
      <point x="233" y="650"/>
      <point x="207" y="641"/>
      <point x="199" y="607" type="curve" smooth="yes"/>
      <point x="108" y="240" type="line" smooth="yes"/>
      <point x="96" y="193"/>
      <point x="123" y="176"/>
    </contour>
  </outline>
</glyph>
<glyph name="quotedbl" format="2">
  <advance width="412"/>
  <unicode hex="0022"/>
  <outline>
    <contour>
      <point x="188" y="405" type="curve" smooth="yes"/>
      <point x="213" y="405"/>
      <point x="232" y="420"/>
      <point x="238" y="439" type="curve" smooth="yes"/>
      <point x="278" y="597" type="line" smooth="yes"/>
      <point x="286" y="627"/>
      <point x="270" y="650"/>
      <point x="234" y="650" type="curve" smooth="yes"/>
      <point x="209" y="650"/>
      <point x="190" y="635"/>
      <point x="184" y="614" type="curve" smooth="yes"/>
      <point x="144" y="457" type="line" smooth="yes"/>
      <point x="137" y="427"/>
      <point x="153" y="405"/>
    </contour>
    <contour>
      <point x="351" y="405" type="curve" smooth="yes"/>
      <point x="375" y="405"/>
      <point x="394" y="420"/>
      <point x="400" y="439" type="curve" smooth="yes"/>
      <point x="441" y="597" type="line" smooth="yes"/>
      <point x="449" y="627"/>
      <point x="433" y="650"/>
      <point x="397" y="650" type="curve" smooth="yes"/>
      <point x="372" y="650"/>
      <point x="353" y="635"/>
      <point x="347" y="614" type="curve" smooth="yes"/>
      <point x="307" y="457" type="line" smooth="yes"/>
      <point x="300" y="427"/>
      <point x="316" y="405"/>
    </contour>
  </outline>
</glyph>
<glyph name="numbersign" format="2">
  <advance width="737"/>
  <unicode hex="0023"/>
  <outline>
    <contour>
      <point x="144" y="196" type="curve" smooth="yes"/>
      <point x="625" y="196" type="line" smooth="yes"/>
      <point x="661" y="196"/>
      <point x="676" y="223"/>
      <point x="676" y="244" type="curve" smooth="yes"/>
      <point x="676" y="266"/>
      <point x="664" y="292"/>
      <point x="625" y="292" type="curve" smooth="yes"/>
      <point x="144" y="292" type="line" smooth="yes"/>
      <point x="105" y="292"/>
      <point x="93" y="266"/>
      <point x="93" y="244" type="curve"/>
      <point x="93" y="223"/>
      <point x="108" y="196"/>
    </contour>
    <contour>
      <point x="185" y="358" type="curve" smooth="yes"/>
      <point x="664" y="358" type="line" smooth="yes"/>
      <point x="703" y="358"/>
      <point x="716" y="384"/>
      <point x="716" y="406" type="curve" smooth="yes"/>
      <point x="716" y="427"/>
      <point x="702" y="454"/>
      <point x="664" y="454" type="curve" smooth="yes"/>
      <point x="185" y="454" type="line" smooth="yes"/>
      <point x="147" y="454"/>
      <point x="133" y="427"/>
      <point x="133" y="406" type="curve" smooth="yes"/>
      <point x="133" y="384"/>
      <point x="146" y="358"/>
    </contour>
    <contour>
      <point x="242" y="0" type="curve" smooth="yes"/>
      <point x="283" y="0"/>
      <point x="292" y="25"/>
      <point x="296" y="43" type="curve" smooth="yes"/>
      <point x="429" y="586" type="line" smooth="yes"/>
      <point x="439" y="630"/>
      <point x="418" y="650"/>
      <point x="386" y="650" type="curve" smooth="yes"/>
      <point x="353" y="650"/>
      <point x="338" y="635"/>
      <point x="331" y="606" type="curve" smooth="yes"/>
      <point x="196" y="61" type="line" smooth="yes"/>
      <point x="187" y="28"/>
      <point x="204" y="0"/>
    </contour>
    <contour>
      <point x="424" y="0" type="curve" smooth="yes"/>
      <point x="465" y="0"/>
      <point x="474" y="25"/>
      <point x="478" y="43" type="curve" smooth="yes"/>
      <point x="611" y="586" type="line" smooth="yes"/>
      <point x="621" y="630"/>
      <point x="600" y="650"/>
      <point x="568" y="650" type="curve" smooth="yes"/>
      <point x="535" y="650"/>
      <point x="520" y="635"/>
      <point x="513" y="606" type="curve" smooth="yes"/>
      <point x="378" y="61" type="line" smooth="yes"/>
      <point x="369" y="28"/>
      <point x="386" y="0"/>
    </contour>
  </outline>
</glyph>
<glyph name="ampersand" format="2">
  <advance width="620"/>
  <unicode hex="0026"/>
  <guideline x="284" y="422" angle="76.0" identifier="5Q9LBHOic4"/>
  <outline>
    <contour>
      <point x="204" y="0" type="curve" smooth="yes"/>
      <point x="313" y="0"/>
      <point x="437" y="102"/>
      <point x="544" y="279" type="curve" smooth="yes"/>
      <point x="560" y="303"/>
      <point x="550" y="334"/>
      <point x="524" y="347" type="curve" smooth="yes"/>
      <point x="502" y="358"/>
      <point x="473" y="354"/>
      <point x="457" y="328" type="curve" smooth="yes"/>
      <point x="372" y="190"/>
      <point x="282" y="96"/>
      <point x="214" y="96" type="curve" smooth="yes"/>
      <point x="186" y="96"/>
      <point x="173" y="120"/>
      <point x="173" y="151" type="curve" smooth="yes"/>
      <point x="173" y="207"/>
      <point x="222" y="264"/>
      <point x="308" y="322" type="curve" smooth="yes"/>
      <point x="430" y="403"/>
      <point x="484" y="476"/>
      <point x="484" y="537" type="curve" smooth="yes"/>
      <point x="484" y="604"/>
      <point x="437" y="650"/>
      <point x="352" y="650" type="curve" smooth="yes"/>
      <point x="257" y="650"/>
      <point x="186" y="581"/>
      <point x="186" y="490" type="curve" smooth="yes"/>
      <point x="186" y="448"/>
      <point x="211" y="397"/>
      <point x="243" y="339" type="curve" smooth="yes"/>
      <point x="414" y="27" type="line" smooth="yes"/>
      <point x="424" y="8"/>
      <point x="462" y="-12"/>
      <point x="491" y="9" type="curve" smooth="yes"/>
      <point x="515" y="27"/>
      <point x="515" y="54"/>
      <point x="501" y="79" type="curve" smooth="yes"/>
      <point x="329" y="391" type="line" smooth="yes"/>
      <point x="307" y="431"/>
      <point x="287" y="462"/>
      <point x="287" y="498" type="curve" smooth="yes"/>
      <point x="287" y="530"/>
      <point x="310" y="554"/>
      <point x="342" y="554" type="curve" smooth="yes"/>
      <point x="363" y="554"/>
      <point x="383" y="549"/>
      <point x="383" y="530" type="curve" smooth="yes"/>
      <point x="383" y="498"/>
      <point x="336" y="456"/>
      <point x="255" y="402" type="curve" smooth="yes"/>
      <point x="132" y="322"/>
      <point x="72" y="233"/>
      <point x="72" y="144" type="curve" smooth="yes"/>
      <point x="72" y="52"/>
      <point x="126" y="0"/>
    </contour>
  </outline>
</glyph>
<glyph name="quotesingle" format="2">
  <advance width="249"/>
  <unicode hex="0027"/>
  <outline>
    <contour>
      <point x="188" y="405" type="curve" smooth="yes"/>
      <point x="213" y="405"/>
      <point x="232" y="420"/>
      <point x="238" y="439" type="curve" smooth="yes"/>
      <point x="278" y="597" type="line" smooth="yes"/>
      <point x="286" y="627"/>
      <point x="270" y="650"/>
      <point x="234" y="650" type="curve" smooth="yes"/>
      <point x="209" y="650"/>
      <point x="190" y="635"/>
      <point x="184" y="614" type="curve" smooth="yes"/>
      <point x="144" y="457" type="line" smooth="yes"/>
      <point x="137" y="427"/>
      <point x="153" y="405"/>
    </contour>
  </outline>
</glyph>
<glyph name="plus" format="2">
  <advance width="426"/>
  <unicode hex="002B"/>
  <outline>
    <contour>
      <point x="195" y="68" type="curve" smooth="yes"/>
      <point x="213.0" y="68.0"/>
      <point x="233.0" y="76.0"/>
      <point x="240" y="105" type="curve" smooth="yes"/>
      <point x="294" y="327" type="line" smooth="yes"/>
      <point x="302.0" y="362"/>
      <point x="278" y="382.0"/>
      <point x="257" y="382" type="curve" smooth="yes"/>
      <point x="240.0" y="382.0"/>
      <point x="218.0" y="377"/>
      <point x="211" y="348" type="curve" smooth="yes"/>
      <point x="157" y="125" type="line"/>
      <point x="149.0" y="87"/>
      <point x="174.0" y="68.0"/>
    </contour>
    <contour>
      <point x="110" y="184" type="curve" smooth="yes"/>
      <point x="337" y="184" type="line" smooth="yes"/>
      <point x="371.0" y="184.0"/>
      <point x="383.0" y="208.0"/>
      <point x="383" y="227" type="curve" smooth="yes"/>
      <point x="383.0" y="247.0"/>
      <point x="371.0" y="270.0"/>
      <point x="337" y="270" type="curve" smooth="yes"/>
      <point x="110" y="270" type="line" smooth="yes"/>
      <point x="76.0" y="270.0"/>
      <point x="64.0" y="247.0"/>
      <point x="64" y="227" type="curve" smooth="yes"/>
      <point x="64.0" y="207.0"/>
      <point x="76.0" y="184.0"/>
    </contour>
  </outline>
</glyph>
<glyph name="one" format="2">
  <advance width="280"/>
  <unicode hex="0031"/>
  <outline>
    <contour>
      <point x="102" y="0" type="curve" smooth="yes"/>
      <point x="143" y="0"/>
      <point x="152" y="25"/>
      <point x="156" y="43" type="curve" smooth="yes"/>
      <point x="289" y="586" type="line" smooth="yes"/>
      <point x="299" y="630"/>
      <point x="278" y="650"/>
      <point x="246" y="650" type="curve" smooth="yes"/>
      <point x="213" y="650"/>
      <point x="198" y="635"/>
      <point x="191" y="606" type="curve" smooth="yes"/>
      <point x="56" y="61" type="line" smooth="yes"/>
      <point x="47" y="28"/>
      <point x="64" y="0"/>
    </contour>
  </outline>
</glyph>
<glyph name="three" format="2">
  <advance width="471"/>
  <unicode hex="0033"/>
  <outline>
    <contour>
      <point x="217" y="0" type="curve" smooth="yes"/>
      <point x="311" y="0"/>
      <point x="396" y="57"/>
      <point x="424" y="172" type="curve" smooth="yes"/>
      <point x="454" y="293"/>
      <point x="384" y="383"/>
      <point x="238" y="399" type="curve"/>
      <point x="239" y="325" type="line"/>
      <point x="471" y="557" type="line" smooth="yes"/>
      <point x="493" y="580"/>
      <point x="495" y="588"/>
      <point x="495" y="603" type="curve" smooth="yes"/>
      <point x="495" y="630"/>
      <point x="477" y="650"/>
      <point x="446" y="650" type="curve" smooth="yes"/>
      <point x="220" y="650" type="line" smooth="yes"/>
      <point x="178" y="650"/>
      <point x="168" y="625"/>
      <point x="168" y="601" type="curve" smooth="yes"/>
      <point x="168" y="578"/>
      <point x="176" y="554"/>
      <point x="220" y="554" type="curve" smooth="yes"/>
      <point x="397" y="554" type="line"/>
      <point x="376" y="605" type="line"/>
      <point x="163" y="392" type="line" smooth="yes"/>
      <point x="127" y="356"/>
      <point x="142" y="309"/>
      <point x="195" y="305" type="curve" smooth="yes"/>
      <point x="288" y="299"/>
      <point x="345" y="267"/>
      <point x="324" y="183" type="curve" smooth="yes"/>
      <point x="311" y="126"/>
      <point x="265" y="96"/>
      <point x="218" y="96" type="curve" smooth="yes"/>
      <point x="183" y="96"/>
      <point x="155" y="129"/>
      <point x="147" y="174" type="curve" smooth="yes"/>
      <point x="139" y="218"/>
      <point x="118" y="222"/>
      <point x="95" y="222" type="curve" smooth="yes"/>
      <point x="77" y="222"/>
      <point x="36" y="224"/>
      <point x="50" y="151" type="curve" smooth="yes"/>
      <point x="66" y="57"/>
      <point x="135" y="0"/>
    </contour>
  </outline>
</glyph>
<glyph name="seven" format="2">
  <advance width="438"/>
  <unicode hex="0037"/>
  <outline>
    <contour>
      <point x="128" y="0" type="curve" smooth="yes"/>
      <point x="152" y="0"/>
      <point x="168" y="12"/>
      <point x="185" y="43" type="curve" smooth="yes"/>
      <point x="483" y="565" type="line" smooth="yes"/>
      <point x="520" y="630"/>
      <point x="487" y="644"/>
      <point x="443" y="644" type="curve" smooth="yes"/>
      <point x="201" y="644" type="line" smooth="yes"/>
      <point x="163" y="644"/>
      <point x="150" y="618"/>
      <point x="150" y="597" type="curve" smooth="yes"/>
      <point x="150" y="574"/>
      <point x="164" y="550"/>
      <point x="201" y="550" type="curve" smooth="yes"/>
      <point x="420" y="550" type="line"/>
      <point x="392" y="596" type="line"/>
      <point x="102" y="87" type="line" smooth="yes"/>
      <point x="63" y="19"/>
      <point x="99" y="0"/>
    </contour>
  </outline>
</glyph>
<glyph name="nine" format="2">
  <advance width="485"/>
  <unicode hex="0039"/>
  <outline>
    <contour>
      <point x="306" y="0" type="curve" smooth="yes"/>
      <point x="347" y="0"/>
      <point x="357" y="25"/>
      <point x="361" y="43" type="curve" smooth="yes"/>
      <point x="486" y="553" type="line" smooth="yes"/>
      <point x="496" y="597"/>
      <point x="475" y="617"/>
      <point x="443" y="617" type="curve" smooth="yes"/>
      <point x="410" y="617"/>
      <point x="395" y="602"/>
      <point x="388" y="573" type="curve" smooth="yes"/>
      <point x="261" y="61" type="line" smooth="yes"/>
      <point x="252" y="28"/>
      <point x="269" y="0"/>
    </contour>
    <contour>
      <point x="201" y="225" type="curve" smooth="yes"/>
      <point x="311" y="225"/>
      <point x="380" y="331"/>
      <point x="417" y="480" type="curve" smooth="yes"/>
      <point x="442" y="578"/>
      <point x="446" y="650"/>
      <point x="365" y="650" type="curve" smooth="yes"/>
      <point x="255" y="650"/>
      <point x="137" y="544"/>
      <point x="99" y="396" type="curve" smooth="yes"/>
      <point x="71" y="282"/>
      <point x="119" y="225"/>
    </contour>
    <contour>
      <point x="211" y="321" type="curve" smooth="yes"/>
      <point x="185" y="321"/>
      <point x="196" y="365"/>
      <point x="200" y="382" type="curve" smooth="yes"/>
      <point x="223" y="476"/>
      <point x="289" y="554"/>
      <point x="355" y="554" type="curve" smooth="yes"/>
      <point x="384" y="554"/>
      <point x="371" y="507"/>
      <point x="368" y="492" type="curve" smooth="yes"/>
      <point x="346" y="398"/>
      <point x="276" y="322"/>
    </contour>
  </outline>
</glyph>
<glyph name="semicolon" format="2">
  <advance width="185"/>
  <unicode hex="003B"/>
  <outline>
    <contour>
      <point x="43" y="-79" type="curve" smooth="yes"/>
      <point x="69" y="-79"/>
      <point x="90" y="-68"/>
      <point x="98" y="-37" type="curve" smooth="yes"/>
      <point x="124" y="67" type="line" smooth="yes"/>
      <point x="136" y="113"/>
      <point x="103" y="129"/>
      <point x="76" y="129" type="curve" smooth="yes"/>
      <point x="50" y="129"/>
      <point x="30" y="119.0"/>
      <point x="22" y="87" type="curve" smooth="yes"/>
      <point x="-4" y="-17" type="line" smooth="yes"/>
      <point x="-15" y="-62"/>
      <point x="17" y="-79"/>
    </contour>
    <contour>
      <point x="128" y="233" type="curve" smooth="yes"/>
      <point x="161" y="233"/>
      <point x="191" y="263"/>
      <point x="191" y="298" type="curve" smooth="yes"/>
      <point x="191" y="331"/>
      <point x="161" y="359"/>
      <point x="128" y="359" type="curve" smooth="yes"/>
      <point x="93" y="359"/>
      <point x="66" y="331"/>
      <point x="66" y="298" type="curve" smooth="yes"/>
      <point x="66" y="263"/>
      <point x="93" y="233"/>
    </contour>
  </outline>
</glyph>
<glyph name="less" format="2">
  <advance width="426"/>
  <unicode hex="003C"/>
  <outline>
    <contour>
      <point x="259" y="106" type="line" smooth="yes"/>
      <point x="281.0" y="93.0"/>
      <point x="308.0" y="94.0"/>
      <point x="322" y="108" type="curve" smooth="yes"/>
      <point x="341.0" y="126.0"/>
      <point x="341" y="157.0"/>
      <point x="312" y="174" type="curve" smooth="yes"/>
      <point x="167" y="259" type="line"/>
      <point x="162" y="217" type="line"/>
      <point x="348" y="286" type="line" smooth="yes"/>
      <point x="384.0" y="299.0"/>
      <point x="384.0" y="320.0"/>
      <point x="379" y="339" type="curve" smooth="yes"/>
      <point x="374.0" y="358.0"/>
      <point x="357.0" y="381"/>
      <point x="319" y="366" type="curve" smooth="yes"/>
      <point x="99" y="282" type="line" smooth="yes"/>
      <point x="83.0" y="276.0"/>
      <point x="73.0" y="258.0"/>
      <point x="73" y="243" type="curve" smooth="yes"/>
      <point x="73.0" y="231.0"/>
      <point x="75" y="218"/>
      <point x="90" y="209" type="curve" smooth="yes"/>
    </contour>
  </outline>
</glyph>
<glyph name="at" format="2">
  <advance width="720"/>
  <unicode hex="0040"/>
  <outline>
    <contour>
      <point x="316" y="49" type="curve" smooth="yes"/>
      <point x="382" y="49"/>
      <point x="413" y="124"/>
      <point x="441" y="229" type="curve" smooth="yes"/>
      <point x="470" y="337"/>
      <point x="474" y="408"/>
      <point x="405" y="408" type="curve" smooth="yes"/>
      <point x="328" y="408"/>
      <point x="256" y="341"/>
      <point x="229" y="233" type="curve" smooth="yes"/>
      <point x="201" y="119"/>
      <point x="236" y="49"/>
    </contour>
    <contour>
      <point x="337" y="139" type="curve" smooth="yes"/>
      <point x="316" y="139"/>
      <point x="310" y="167"/>
      <point x="322" y="213" type="curve" smooth="yes"/>
      <point x="338" y="278"/>
      <point x="369" y="318"/>
      <point x="403" y="318" type="curve" smooth="yes"/>
      <point x="423" y="318"/>
      <point x="429" y="292"/>
      <point x="418" y="249" type="curve" smooth="yes"/>
      <point x="401" y="181"/>
      <point x="370" y="139"/>
    </contour>
    <contour>
      <point x="311" y="-120" type="curve" smooth="yes"/>
      <point x="341" y="-120"/>
      <point x="399" y="-111"/>
      <point x="447" y="-98" type="curve" smooth="yes"/>
      <point x="484" y="-88"/>
      <point x="501" y="-64"/>
      <point x="492" y="-33" type="curve" smooth="yes"/>
      <point x="483" y="-4"/>
      <point x="453" y="6"/>
      <point x="412" y="-8" type="curve" smooth="yes"/>
      <point x="382" y="-18"/>
      <point x="338" y="-25"/>
      <point x="309" y="-25" type="curve" smooth="yes"/>
      <point x="188" y="-25"/>
      <point x="124" y="78"/>
      <point x="158" y="215" type="curve" smooth="yes"/>
      <point x="201" y="384"/>
      <point x="309" y="489"/>
      <point x="441" y="489" type="curve" smooth="yes"/>
      <point x="558" y="489"/>
      <point x="622" y="395"/>
      <point x="593" y="268" type="curve" smooth="yes"/>
      <point x="575" y="192"/>
      <point x="533" y="136"/>
      <point x="502" y="136" type="curve" smooth="yes"/>
      <point x="487" y="136"/>
      <point x="492" y="164"/>
      <point x="496" y="179" type="curve" smooth="yes"/>
      <point x="540" y="354" type="line" smooth="yes"/>
      <point x="549" y="390"/>
      <point x="534" y="408"/>
      <point x="502" y="408" type="curve" smooth="yes"/>
      <point x="472" y="408"/>
      <point x="456" y="397"/>
      <point x="449" y="369" type="curve" smooth="yes"/>
      <point x="406" y="200" type="line" smooth="yes"/>
      <point x="375" y="80"/>
      <point x="418" y="49"/>
      <point x="470" y="49" type="curve"/>
      <point x="569" y="49"/>
      <point x="664" y="137"/>
      <point x="693" y="254" type="curve" smooth="yes"/>
      <point x="741" y="443"/>
      <point x="634" y="584"/>
      <point x="444" y="584" type="curve" smooth="yes"/>
      <point x="260" y="584"/>
      <point x="113" y="453"/>
      <point x="60" y="240" type="curve" smooth="yes"/>
      <point x="9" y="34"/>
      <point x="116" y="-120"/>
    </contour>
  </outline>
</glyph>
<glyph name="A" format="2">
  <advance width="486"/>
  <unicode hex="0041"/>
  <outline>
    <contour>
      <point x="39" y="0" type="curve" smooth="yes"/>
      <point x="69" y="0"/>
      <point x="78" y="6"/>
      <point x="95" y="34" type="curve" smooth="yes"/>
      <point x="392" y="516" type="line"/>
      <point x="341" y="530" type="line"/>
      <point x="346" y="46" type="line"/>
      <point x="346" y="26"/>
      <point x="349" y="0"/>
      <point x="396" y="0" type="curve" smooth="yes"/>
      <point x="433" y="0"/>
      <point x="446" y="19"/>
      <point x="446" y="49" type="curve" smooth="yes"/>
      <point x="439" y="605" type="line" smooth="yes"/>
      <point x="439" y="625"/>
      <point x="422" y="650"/>
      <point x="390" y="650" type="curve" smooth="yes"/>
      <point x="359" y="650"/>
      <point x="351" y="637"/>
      <point x="337" y="616" type="curve" smooth="yes"/>
      <point x="2" y="72" type="line" smooth="yes"/>
      <point x="-28" y="23"/>
      <point x="8" y="0"/>
    </contour>
    <contour>
      <point x="171" y="239" type="line"/>
      <point x="397" y="239" type="line"/>
      <point x="395" y="335" type="line"/>
      <point x="225" y="335" type="line"/>
    </contour>
  </outline>
</glyph>
<glyph name="C" format="2">
  <advance width="473"/>
  <unicode hex="0043"/>
  <outline>
    <contour>
      <point x="216" y="0" type="curve" smooth="yes"/>
      <point x="276" y="0"/>
      <point x="351" y="44"/>
      <point x="414" y="141" type="curve" smooth="yes"/>
      <point x="440" y="181"/>
      <point x="442" y="195"/>
      <point x="442" y="202" type="curve" smooth="yes"/>
      <point x="442" y="222"/>
      <point x="426" y="245"/>
      <point x="398" y="247" type="curve" smooth="yes"/>
      <point x="376" y="248"/>
      <point x="362" y="239"/>
      <point x="336" y="199" type="curve" smooth="yes"/>
      <point x="294" y="135"/>
      <point x="252" y="97"/>
      <point x="217" y="97" type="curve" smooth="yes"/>
      <point x="163" y="97"/>
      <point x="159" y="193"/>
      <point x="169" y="276" type="curve" smooth="yes"/>
      <point x="187" y="436"/>
      <point x="246" y="553"/>
      <point x="341" y="553" type="curve" smooth="yes"/>
      <point x="364" y="553"/>
      <point x="379" y="538"/>
      <point x="387" y="514" type="curve"/>
      <point x="399" y="486"/>
      <point x="425" y="474"/>
      <point x="453" y="483" type="curve" smooth="yes"/>
      <point x="480" y="491"/>
      <point x="492" y="512"/>
      <point x="485" y="540" type="curve" smooth="yes"/>
      <point x="467" y="613"/>
      <point x="419" y="650"/>
      <point x="346" y="650" type="curve" smooth="yes"/>
      <point x="206" y="650"/>
      <point x="94" y="515"/>
      <point x="65" y="274" type="curve" smooth="yes"/>
      <point x="44" y="91"/>
      <point x="111" y="0"/>
    </contour>
  </outline>
</glyph>
<glyph name="E" format="2">
  <advance width="483"/>
  <unicode hex="0045"/>
  <outline>
    <contour>
      <point x="91" y="0" type="curve" smooth="yes"/>
      <point x="129" y="0"/>
      <point x="140" y="25"/>
      <point x="145" y="43" type="curve" smooth="yes"/>
      <point x="279" y="584" type="line" smooth="yes"/>
      <point x="289" y="629"/>
      <point x="276" y="650"/>
      <point x="237" y="650" type="curve" smooth="yes"/>
      <point x="200" y="650"/>
      <point x="188" y="634"/>
      <point x="181" y="606" type="curve" smooth="yes"/>
      <point x="45" y="61" type="line" smooth="yes"/>
      <point x="37" y="28"/>
      <point x="54" y="0"/>
    </contour>
    <contour>
      <point x="91" y="0" type="line"/>
      <point x="363" y="0" type="line" smooth="yes"/>
      <point x="395" y="0"/>
      <point x="414" y="21"/>
      <point x="414" y="50" type="curve" smooth="yes"/>
      <point x="414" y="74"/>
      <point x="400" y="96"/>
      <point x="363" y="96" type="curve" smooth="yes"/>
      <point x="111" y="96" type="line"/>
    </contour>
    <contour>
      <point x="131" y="282" type="line"/>
      <point x="349" y="282" type="line" smooth="yes"/>
      <point x="383" y="282"/>
      <point x="401" y="303"/>
      <point x="401" y="330" type="curve" smooth="yes"/>
      <point x="401" y="358"/>
      <point x="384" y="378"/>
      <point x="349" y="378" type="curve" smooth="yes"/>
      <point x="155" y="378" type="line"/>
    </contour>
    <contour>
      <point x="214" y="554" type="line"/>
      <point x="481" y="554" type="line" smooth="yes"/>
      <point x="515" y="554"/>
      <point x="532" y="575"/>
      <point x="532" y="602" type="curve" smooth="yes"/>
      <point x="532" y="630"/>
      <point x="516" y="650"/>
      <point x="481" y="650" type="curve" smooth="yes"/>
      <point x="237" y="650" type="line"/>
    </contour>
  </outline>
</glyph>
<glyph name="G" format="2">
  <advance width="485"/>
  <unicode hex="0047"/>
  <outline>
    <contour>
      <point x="188" y="0" type="curve" smooth="yes"/>
      <point x="271" y="0"/>
      <point x="307" y="61"/>
      <point x="355" y="148" type="curve"/>
      <point x="339" y="154" type="line"/>
      <point x="315" y="60" type="line" smooth="yes"/>
      <point x="308" y="32"/>
      <point x="319" y="0"/>
      <point x="359" y="0" type="curve" smooth="yes"/>
      <point x="398" y="0"/>
      <point x="409" y="24"/>
      <point x="414" y="43" type="curve" smooth="yes"/>
      <point x="480" y="302" type="line" smooth="yes"/>
      <point x="491" y="343"/>
      <point x="460" y="363"/>
      <point x="433" y="363" type="curve" smooth="yes"/>
      <point x="406" y="363"/>
      <point x="393" y="354"/>
      <point x="356" y="264" type="curve" smooth="yes"/>
      <point x="316" y="165"/>
      <point x="258" y="96"/>
      <point x="194" y="96" type="curve" smooth="yes"/>
      <point x="131" y="96"/>
      <point x="171" y="309"/>
      <point x="184" y="359" type="curve" smooth="yes"/>
      <point x="214" y="481"/>
      <point x="270" y="553"/>
      <point x="343" y="553" type="curve" smooth="yes"/>
      <point x="363" y="553"/>
      <point x="374" y="537"/>
      <point x="383" y="514" type="curve" smooth="yes"/>
      <point x="393" y="488"/>
      <point x="417" y="473"/>
      <point x="448" y="483" type="curve" smooth="yes"/>
      <point x="479" y="492"/>
      <point x="489" y="516"/>
      <point x="480" y="542" type="curve" smooth="yes"/>
      <point x="454" y="616"/>
      <point x="408" y="650"/>
      <point x="347" y="650" type="curve" smooth="yes"/>
      <point x="223" y="650"/>
      <point x="127" y="547"/>
      <point x="81" y="366" type="curve" smooth="yes"/>
      <point x="13" y="93"/>
      <point x="79" y="0"/>
    </contour>
  </outline>
</glyph>
<glyph name="I" format="2">
  <advance width="440"/>
  <unicode hex="0049"/>
  <outline>
    <contour>
      <point x="133" y="22" type="line"/>
      <point x="238" y="22" type="line"/>
      <point x="388" y="626" type="line"/>
      <point x="285" y="628" type="line"/>
    </contour>
    <contour>
      <point x="213" y="554" type="curve" smooth="yes"/>
      <point x="445" y="554" type="line" smooth="yes"/>
      <point x="488" y="554"/>
      <point x="496" y="578"/>
      <point x="496" y="601" type="curve" smooth="yes"/>
      <point x="496" y="625"/>
      <point x="487" y="650"/>
      <point x="445" y="650" type="curve" smooth="yes"/>
      <point x="213" y="650" type="line" smooth="yes"/>
      <point x="171" y="650"/>
      <point x="162" y="625"/>
      <point x="162" y="601" type="curve" smooth="yes"/>
      <point x="162" y="578"/>
      <point x="170" y="554"/>
    </contour>
    <contour>
      <point x="77" y="0" type="curve" smooth="yes"/>
      <point x="309" y="0" type="line" smooth="yes"/>
      <point x="351" y="0"/>
      <point x="360" y="25"/>
      <point x="360" y="49" type="curve" smooth="yes"/>
      <point x="360" y="72"/>
      <point x="352" y="96"/>
      <point x="309" y="96" type="curve" smooth="yes"/>
      <point x="77" y="96" type="line" smooth="yes"/>
      <point x="34" y="96"/>
      <point x="26" y="72"/>
      <point x="26" y="49" type="curve" smooth="yes"/>
      <point x="26" y="25"/>
      <point x="35" y="0"/>
    </contour>
  </outline>
</glyph>
<glyph name="M" format="2">
  <advance width="686"/>
  <unicode hex="004D"/>
  <guideline x="305" y="548" angle="0" identifier="uzSYBaR9Es"/>
  <outline>
    <contour>
      <point x="92" y="0" type="curve" smooth="yes"/>
      <point x="125" y="0"/>
      <point x="140" y="21"/>
      <point x="146" y="43" type="curve" smooth="yes"/>
      <point x="278" y="578" type="line"/>
      <point x="205" y="586" type="line"/>
      <point x="257" y="41" type="line" smooth="yes"/>
      <point x="259" y="16"/>
      <point x="274" y="0"/>
      <point x="306" y="0" type="curve" smooth="yes"/>
      <point x="326" y="0"/>
      <point x="345" y="10"/>
      <point x="357" y="30" type="curve" smooth="yes"/>
      <point x="700" y="600" type="line"/>
      <point x="613" y="600" type="line"/>
      <point x="478" y="62" type="line" smooth="yes"/>
      <point x="471" y="38"/>
      <point x="483" y="0"/>
      <point x="524" y="0" type="curve" smooth="yes"/>
      <point x="562" y="0"/>
      <point x="571" y="21"/>
      <point x="576" y="39" type="curve" smooth="yes"/>
      <point x="709" y="572" type="line" smooth="yes"/>
      <point x="721" y="624"/>
      <point x="696" y="650"/>
      <point x="652" y="650" type="curve" smooth="yes"/>
      <point x="628" y="650"/>
      <point x="607" y="640"/>
      <point x="579" y="592" type="curve" smooth="yes"/>
      <point x="299" y="121" type="line"/>
      <point x="350" y="110" type="line"/>
      <point x="307" y="578" type="line" smooth="yes"/>
      <point x="302" y="631"/>
      <point x="276" y="650"/>
      <point x="244" y="650" type="curve" smooth="yes"/>
      <point x="214" y="650"/>
      <point x="185" y="629"/>
      <point x="176" y="585" type="curve" smooth="yes"/>
      <point x="47" y="62" type="line" smooth="yes"/>
      <point x="40" y="30"/>
      <point x="59" y="0"/>
    </contour>
  </outline>
</glyph>
<glyph name="O" format="2">
  <advance width="485"/>
  <unicode hex="004F"/>
  <outline>
    <contour>
      <point x="216" y="0" type="curve" smooth="yes"/>
      <point x="336" y="0"/>
      <point x="443" y="124"/>
      <point x="491" y="345" type="curve" smooth="yes"/>
      <point x="535" y="548"/>
      <point x="467" y="650"/>
      <point x="346" y="650" type="curve" smooth="yes"/>
      <point x="206" y="650"/>
      <point x="94" y="515"/>
      <point x="65" y="274" type="curve" smooth="yes"/>
      <point x="44" y="91"/>
      <point x="111" y="0"/>
    </contour>
    <contour>
      <point x="217" y="97" type="curve" smooth="yes"/>
      <point x="163" y="97"/>
      <point x="158" y="193"/>
      <point x="168" y="276" type="curve" smooth="yes"/>
      <point x="187" y="436"/>
      <point x="246" y="553"/>
      <point x="341" y="553" type="curve" smooth="yes"/>
      <point x="407" y="553"/>
      <point x="409" y="446"/>
      <point x="389" y="354" type="curve" smooth="yes"/>
      <point x="356" y="205"/>
      <point x="296" y="97"/>
    </contour>
  </outline>
</glyph>
<glyph name="P" format="2">
  <advance width="523"/>
  <unicode hex="0050"/>
  <outline>
    <contour>
      <point x="167" y="304" type="line"/>
      <point x="378" y="304"/>
      <point x="524" y="327"/>
      <point x="556" y="452" type="curve" smooth="yes"/>
      <point x="586" y="572"/>
      <point x="490" y="650"/>
      <point x="236" y="650" type="curve"/>
      <point x="212" y="549" type="line"/>
      <point x="320" y="549"/>
      <point x="473" y="535"/>
      <point x="458" y="474" type="curve" smooth="yes"/>
      <point x="439" y="401"/>
      <point x="310" y="404"/>
      <point x="192" y="404" type="curve"/>
    </contour>
    <contour>
      <point x="91" y="0" type="curve" smooth="yes"/>
      <point x="128" y="0"/>
      <point x="142" y="29"/>
      <point x="146" y="45" type="curve" smooth="yes"/>
      <point x="279" y="587" type="line" smooth="yes"/>
      <point x="289" y="631"/>
      <point x="276" y="650"/>
      <point x="236" y="650" type="curve" smooth="yes"/>
      <point x="198" y="650"/>
      <point x="188" y="635"/>
      <point x="181" y="606" type="curve" smooth="yes"/>
      <point x="46" y="63" type="line" smooth="yes"/>
      <point x="37" y="31"/>
      <point x="56" y="0"/>
    </contour>
  </outline>
</glyph>
<glyph name="R" format="2">
  <advance width="528"/>
  <unicode hex="0052"/>
  <outline>
    <contour>
      <point x="158" y="300" type="line"/>
      <point x="363" y="300"/>
      <point x="526" y="320"/>
      <point x="561" y="461" type="curve" smooth="yes"/>
      <point x="591" y="580"/>
      <point x="505" y="650"/>
      <point x="237" y="650" type="curve"/>
      <point x="237" y="553" type="line"/>
      <point x="410" y="553"/>
      <point x="476" y="533"/>
      <point x="463" y="484" type="curve" smooth="yes"/>
      <point x="440" y="393"/>
      <point x="304" y="397"/>
      <point x="178" y="397" type="curve"/>
    </contour>
    <contour>
      <point x="408" y="0" type="curve" smooth="yes"/>
      <point x="451" y="0"/>
      <point x="473" y="50"/>
      <point x="449" y="82" type="curve" smooth="yes"/>
      <point x="257" y="334" type="line"/>
      <point x="138" y="323" type="line"/>
      <point x="364" y="28" type="line" smooth="yes"/>
      <point x="382" y="4"/>
      <point x="395" y="0"/>
    </contour>
    <contour>
      <point x="91" y="0" type="curve" smooth="yes"/>
      <point x="128" y="0"/>
      <point x="141" y="22"/>
      <point x="146" y="47" type="curve" smooth="yes"/>
      <point x="280" y="587" type="line" smooth="yes"/>
      <point x="289" y="629"/>
      <point x="278" y="650"/>
      <point x="238" y="650" type="curve" smooth="yes"/>
      <point x="200" y="650"/>
      <point x="189" y="636"/>
      <point x="181" y="606" type="curve" smooth="yes"/>
      <point x="47" y="65" type="line" smooth="yes"/>
      <point x="37" y="25"/>
      <point x="58" y="0"/>
    </contour>
  </outline>
</glyph>
<glyph name="bracketleft" format="2">
  <advance width="344"/>
  <unicode hex="005B"/>
  <outline>
    <contour>
      <point x="14" y="-199" type="curve" smooth="yes"/>
      <point x="153" y="-199" type="line" smooth="yes"/>
      <point x="189" y="-199"/>
      <point x="205" y="-172"/>
      <point x="205" y="-149" type="curve" smooth="yes"/>
      <point x="205" y="-127"/>
      <point x="193" y="-101"/>
      <point x="153" y="-101" type="curve" smooth="yes"/>
      <point x="45" y="-101" type="line"/>
      <point x="73" y="-136" type="line"/>
      <point x="250" y="573" type="line"/>
      <point x="223" y="552" type="line"/>
      <point x="339" y="552" type="line" smooth="yes"/>
      <point x="374" y="552"/>
      <point x="390" y="576"/>
      <point x="392" y="598" type="curve" smooth="yes"/>
      <point x="394" y="620"/>
      <point x="382" y="650"/>
      <point x="339" y="650" type="curve" smooth="yes"/>
      <point x="210" y="650" type="line" smooth="yes"/>
      <point x="174" y="650"/>
      <point x="159" y="634"/>
      <point x="152" y="605" type="curve" smooth="yes"/>
      <point x="-34" y="-138" type="line" smooth="yes"/>
      <point x="-41" y="-169"/>
      <point x="-27" y="-199"/>
    </contour>
  </outline>
</glyph>
<glyph name="asciicircum" format="2">
  <advance width="473"/>
  <unicode hex="005E"/>
  <outline>
    <contour>
      <point x="177" y="284" type="curve" smooth="yes"/>
      <point x="299" y="388" type="line"/>
      <point x="269" y="390" type="line"/>
      <point x="359" y="284" type="line" smooth="yes"/>
      <point x="377" y="262"/>
      <point x="401" y="267"/>
      <point x="415" y="279" type="curve" smooth="yes"/>
      <point x="430" y="292"/>
      <point x="435" y="316"/>
      <point x="419" y="335" type="curve" smooth="yes"/>
      <point x="319" y="454" type="line" smooth="yes"/>
      <point x="306" y="469"/>
      <point x="283" y="475"/>
      <point x="260" y="456" type="curve" smooth="yes"/>
      <point x="124" y="342" type="line" smooth="yes"/>
      <point x="104" y="325"/>
      <point x="107" y="302"/>
      <point x="120" y="287" type="curve"/>
      <point x="134" y="273"/>
      <point x="153" y="264"/>
    </contour>
  </outline>
</glyph>
<glyph name="f" format="2">
  <advance width="288"/>
  <unicode hex="0066"/>
  <outline>
    <contour>
      <point x="92" y="263" type="curve" smooth="yes"/>
      <point x="266" y="263" type="line" smooth="yes"/>
      <point x="309" y="263"/>
      <point x="318" y="288"/>
      <point x="318" y="312" type="curve" smooth="yes"/>
      <point x="318" y="335"/>
      <point x="310" y="359"/>
      <point x="266" y="359" type="curve" smooth="yes"/>
      <point x="92" y="359" type="line" smooth="yes"/>
      <point x="48" y="359"/>
      <point x="40" y="335"/>
      <point x="40" y="312" type="curve" smooth="yes"/>
      <point x="40" y="288"/>
      <point x="50" y="263"/>
    </contour>
    <contour>
      <point x="88" y="0" type="curve" smooth="yes"/>
      <point x="123" y="0"/>
      <point x="137" y="17"/>
      <point x="145" y="50" type="curve" smooth="yes"/>
      <point x="255" y="491" type="line" smooth="yes"/>
      <point x="261" y="517"/>
      <point x="266" y="544"/>
      <point x="272" y="544" type="curve" smooth="yes"/>
      <point x="278" y="544"/>
      <point x="281" y="535"/>
      <point x="283" y="530" type="curve" smooth="yes"/>
      <point x="295" y="498"/>
      <point x="322" y="489"/>
      <point x="350" y="501" type="curve" smooth="yes"/>
      <point x="377" y="513"/>
      <point x="388" y="536"/>
      <point x="378" y="565" type="curve" smooth="yes"/>
      <point x="357" y="625"/>
      <point x="322" y="650"/>
      <point x="282" y="650" type="curve" smooth="yes"/>
      <point x="227" y="650"/>
      <point x="181" y="612"/>
      <point x="157" y="514" type="curve" smooth="yes"/>
      <point x="46" y="69" type="line" smooth="yes"/>
      <point x="36" y="29"/>
      <point x="49" y="0"/>
    </contour>
  </outline>
</glyph>
<glyph name="h" format="2">
  <advance width="373"/>
  <unicode hex="0068"/>
  <outline>
    <contour>
      <point x="254" y="0" type="curve" smooth="yes"/>
      <point x="289" y="0"/>
      <point x="297" y="18"/>
      <point x="304" y="46" type="curve" smooth="yes"/>
      <point x="338" y="184" type="line" smooth="yes"/>
      <point x="378" y="345"/>
      <point x="338" y="359"/>
      <point x="295" y="359" type="curve" smooth="yes"/>
      <point x="240" y="359"/>
      <point x="167" y="296"/>
      <point x="121" y="217" type="curve"/>
      <point x="122" y="64" type="line"/>
      <point x="152" y="163"/>
      <point x="217" y="266"/>
      <point x="246" y="266" type="curve" smooth="yes"/>
      <point x="263" y="266"/>
      <point x="253" y="219"/>
      <point x="249" y="201" type="curve" smooth="yes"/>
      <point x="215" y="61" type="line" smooth="yes"/>
      <point x="206" y="25"/>
      <point x="215" y="0"/>
    </contour>
    <contour>
      <point x="65" y="0" type="curve" smooth="yes"/>
      <point x="101" y="0"/>
      <point x="111" y="18"/>
      <point x="118" y="46" type="curve" smooth="yes"/>
      <point x="255" y="592" type="line" smooth="yes"/>
      <point x="264" y="629"/>
      <point x="251" y="650"/>
      <point x="219" y="650" type="curve" smooth="yes"/>
      <point x="187" y="650"/>
      <point x="170" y="640"/>
      <point x="162" y="607" type="curve" smooth="yes"/>
      <point x="26" y="64" type="line" smooth="yes"/>
      <point x="16" y="25"/>
      <point x="29" y="0"/>
    </contour>
  </outline>
</glyph>
<glyph name="i" format="2">
  <advance width="197"/>
  <unicode hex="0069"/>
  <outline>
    <contour>
      <point x="65" y="0" type="curve" smooth="yes"/>
      <point x="101" y="0"/>
      <point x="111" y="18"/>
      <point x="118" y="46" type="curve" smooth="yes"/>
      <point x="181" y="299" type="line" smooth="yes"/>
      <point x="190" y="336"/>
      <point x="177" y="357"/>
      <point x="145" y="357" type="curve" smooth="yes"/>
      <point x="113" y="357"/>
      <point x="96" y="347"/>
      <point x="88" y="314" type="curve" smooth="yes"/>
      <point x="26" y="64" type="line" smooth="yes"/>
      <point x="16" y="25"/>
      <point x="29" y="0"/>
    </contour>
    <contour>
      <point x="172" y="393" type="curve" smooth="yes"/>
      <point x="200" y="393"/>
      <point x="224" y="418"/>
      <point x="224" y="444" type="curve" smooth="yes"/>
      <point x="224" y="472"/>
      <point x="199" y="494"/>
      <point x="172" y="494" type="curve" smooth="yes"/>
      <point x="141" y="494"/>
      <point x="121" y="469"/>
      <point x="121" y="444" type="curve" smooth="yes"/>
      <point x="121" y="418"/>
      <point x="144" y="393"/>
    </contour>
  </outline>
</glyph>
<glyph name="m" format="2">
  <advance width="529"/>
  <unicode hex="006D"/>
  <outline>
    <contour>
      <point x="234" y="0" type="curve" smooth="yes"/>
      <point x="269" y="0"/>
      <point x="277" y="18"/>
      <point x="284" y="46" type="curve" smooth="yes"/>
      <point x="318" y="184" type="line" smooth="yes"/>
      <point x="358" y="345"/>
      <point x="318" y="359"/>
      <point x="275" y="359" type="curve" smooth="yes"/>
      <point x="220" y="359"/>
      <point x="157" y="296"/>
      <point x="111" y="217" type="curve"/>
      <point x="112" y="64" type="line"/>
      <point x="142" y="163"/>
      <point x="197" y="266"/>
      <point x="226" y="266" type="curve" smooth="yes"/>
      <point x="243" y="266"/>
      <point x="233" y="219"/>
      <point x="229" y="201" type="curve" smooth="yes"/>
      <point x="195" y="61" type="line" smooth="yes"/>
      <point x="186" y="25"/>
      <point x="195" y="0"/>
    </contour>
    <contour>
      <point x="55" y="0" type="curve" smooth="yes"/>
      <point x="91" y="0"/>
      <point x="101" y="18"/>
      <point x="108" y="46" type="curve" smooth="yes"/>
      <point x="171" y="299" type="line" smooth="yes"/>
      <point x="180" y="336"/>
      <point x="167" y="357"/>
      <point x="135" y="357" type="curve" smooth="yes"/>
      <point x="103" y="357"/>
      <point x="86" y="347"/>
      <point x="78" y="314" type="curve" smooth="yes"/>
      <point x="16" y="64" type="line" smooth="yes"/>
      <point x="6" y="25"/>
      <point x="19" y="0"/>
    </contour>
    <contour>
      <point x="410" y="0" type="curve" smooth="yes"/>
      <point x="445" y="0"/>
      <point x="453" y="18"/>
      <point x="460" y="46" type="curve" smooth="yes"/>
      <point x="494" y="184" type="line" smooth="yes"/>
      <point x="534" y="345"/>
      <point x="494" y="359"/>
      <point x="451" y="359" type="curve" smooth="yes"/>
      <point x="396" y="359"/>
      <point x="333" y="296"/>
      <point x="287" y="217" type="curve"/>
      <point x="288" y="64" type="line"/>
      <point x="318" y="163"/>
      <point x="373" y="266"/>
      <point x="402" y="266" type="curve" smooth="yes"/>
      <point x="419" y="266"/>
      <point x="409" y="219"/>
      <point x="405" y="201" type="curve" smooth="yes"/>
      <point x="371" y="61" type="line" smooth="yes"/>
      <point x="362" y="25"/>
      <point x="371" y="0"/>
    </contour>
  </outline>
</glyph>
<glyph name="p" format="2">
  <advance width="370"/>
  <unicode hex="0070"/>
  <outline>
    <contour>
      <point x="-15" y="-300" type="curve" smooth="yes"/>
      <point x="25" y="-300"/>
      <point x="35" y="-280"/>
      <point x="42" y="-249" type="curve" smooth="yes"/>
      <point x="177" y="291" type="line" smooth="yes"/>
      <point x="187" y="330"/>
      <point x="170" y="350"/>
      <point x="135" y="350" type="curve" smooth="yes"/>
      <point x="102" y="350"/>
      <point x="86" y="338"/>
      <point x="77" y="307" type="curve" smooth="yes"/>
      <point x="-58" y="-234" type="line" smooth="yes"/>
      <point x="-68" y="-275"/>
      <point x="-55" y="-300"/>
    </contour>
    <contour>
      <point x="180" y="0" type="curve" smooth="yes"/>
      <point x="245" y="0"/>
      <point x="317" y="69"/>
      <point x="345" y="180" type="curve" smooth="yes"/>
      <point x="372" y="291"/>
      <point x="337" y="359"/>
      <point x="271" y="359" type="curve" smooth="yes"/>
      <point x="184" y="359"/>
      <point x="159" y="291"/>
      <point x="133" y="184" type="curve" smooth="yes"/>
      <point x="103" y="63"/>
      <point x="102" y="0"/>
    </contour>
    <contour>
      <point x="171" y="90" type="curve" smooth="yes"/>
      <point x="150" y="90"/>
      <point x="144" y="118"/>
      <point x="156" y="164" type="curve" smooth="yes"/>
      <point x="172" y="229"/>
      <point x="203" y="269"/>
      <point x="237" y="269" type="curve" smooth="yes"/>
      <point x="257" y="269"/>
      <point x="263" y="243"/>
      <point x="252" y="200" type="curve" smooth="yes"/>
      <point x="235" y="132"/>
      <point x="204" y="90"/>
    </contour>
  </outline>
</glyph>
<glyph name="v" format="2">
  <advance width="318"/>
  <unicode hex="0076"/>
  <outline>
    <contour>
      <point x="128" y="0" type="curve" smooth="yes"/>
      <point x="155" y="0"/>
      <point x="163" y="8"/>
      <point x="174" y="28" type="curve" smooth="yes"/>
      <point x="320" y="294" type="line" smooth="yes"/>
      <point x="335" y="322"/>
      <point x="321" y="359"/>
      <point x="279" y="359" type="curve" smooth="yes"/>
      <point x="260" y="359"/>
      <point x="245" y="352"/>
      <point x="234" y="331" type="curve" smooth="yes"/>
      <point x="114" y="104" type="line"/>
      <point x="165" y="104" type="line"/>
      <point x="144" y="317" type="line" smooth="yes"/>
      <point x="141" y="350"/>
      <point x="119" y="359"/>
      <point x="98" y="359" type="curve" smooth="yes"/>
      <point x="59" y="359"/>
      <point x="47" y="328"/>
      <point x="50" y="304" type="curve" smooth="yes"/>
      <point x="81" y="39" type="line" smooth="yes"/>
      <point x="84" y="14"/>
      <point x="102" y="0"/>
    </contour>
  </outline>
</glyph>
<glyph name="x" format="2">
  <advance width="339"/>
  <unicode hex="0078"/>
  <outline>
    <contour>
      <point x="51" y="0" type="curve" smooth="yes"/>
      <point x="63" y="0"/>
      <point x="75" y="1"/>
      <point x="100" y="30" type="curve" smooth="yes"/>
      <point x="312" y="270" type="line" smooth="yes"/>
      <point x="361" y="325"/>
      <point x="331" y="359"/>
      <point x="297" y="359" type="curve" smooth="yes"/>
      <point x="276" y="359"/>
      <point x="261" y="351"/>
      <point x="244" y="332" type="curve" smooth="yes"/>
      <point x="23" y="80" type="line" smooth="yes"/>
      <point x="-18" y="33"/>
      <point x="16" y="0"/>
    </contour>
    <contour>
      <point x="228" y="0" type="curve" smooth="yes"/>
      <point x="258" y="0"/>
      <point x="292" y="17"/>
      <point x="270" y="70" type="curve" smooth="yes"/>
      <point x="164" y="324" type="line" smooth="yes"/>
      <point x="153" y="350"/>
      <point x="135" y="359"/>
      <point x="118" y="359" type="curve" smooth="yes"/>
      <point x="81" y="359"/>
      <point x="59" y="329"/>
      <point x="76" y="290" type="curve" smooth="yes"/>
      <point x="183" y="39" type="line" smooth="yes"/>
      <point x="200" y="0"/>
      <point x="214" y="0"/>
    </contour>
  </outline>
</glyph>
<glyph name="braceleft" format="2">
  <advance width="362"/>
  <unicode hex="007B"/>
  <guideline x="286" y="246" angle="0" identifier="dLwT1o6isy"/>
  <outline>
    <contour>
      <point x="135" y="-190" type="curve" smooth="yes"/>
      <point x="164" y="-214"/>
      <point x="188" y="-209"/>
      <point x="205" y="-192" type="curve" smooth="yes"/>
      <point x="227" y="-171"/>
      <point x="229" y="-145"/>
      <point x="203" y="-121" type="curve" smooth="yes"/>
      <point x="168" y="-87"/>
      <point x="142" y="-50"/>
      <point x="142" y="-23" type="curve" smooth="yes"/>
      <point x="142" y="25"/>
      <point x="188" y="83"/>
      <point x="188" y="128" type="curve" smooth="yes"/>
      <point x="188" y="166"/>
      <point x="175" y="198"/>
      <point x="154" y="227" type="curve"/>
      <point x="147" y="208" type="line"/>
      <point x="205" y="246"/>
      <point x="239" y="299"/>
      <point x="239" y="361" type="curve" smooth="yes"/>
      <point x="239" y="413"/>
      <point x="248" y="462"/>
      <point x="266" y="487" type="curve" smooth="yes"/>
      <point x="285" y="515"/>
      <point x="322" y="536"/>
      <point x="372" y="556" type="curve" smooth="yes"/>
      <point x="400" y="567"/>
      <point x="412" y="589"/>
      <point x="403" y="616" type="curve" smooth="yes"/>
      <point x="395" y="641"/>
      <point x="375" y="658"/>
      <point x="337" y="643" type="curve" smooth="yes"/>
      <point x="266" y="619"/>
      <point x="211" y="579"/>
      <point x="182" y="538" type="curve" smooth="yes"/>
      <point x="154" y="497"/>
      <point x="136" y="431"/>
      <point x="136" y="367" type="curve" smooth="yes"/>
      <point x="136" y="339"/>
      <point x="125" y="301"/>
      <point x="96" y="280" type="curve" smooth="yes"/>
      <point x="74" y="263"/>
      <point x="62" y="250"/>
      <point x="58" y="234" type="curve" smooth="yes"/>
      <point x="55" y="218"/>
      <point x="58" y="202"/>
      <point x="76" y="177" type="curve" smooth="yes"/>
      <point x="84" y="166"/>
      <point x="87" y="148"/>
      <point x="87" y="132" type="curve" smooth="yes"/>
      <point x="87" y="89"/>
      <point x="39" y="32"/>
      <point x="39" y="-19" type="curve" smooth="yes"/>
      <point x="39" y="-71"/>
      <point x="74" y="-138"/>
    </contour>
  </outline>
</glyph>
<glyph name="exclamdown" format="2">
  <advance width="299"/>
  <unicode hex="00A1"/>
  <outline>
    <contour>
      <point x="242" y="524" type="curve" smooth="yes"/>
      <point x="277" y="524"/>
      <point x="304" y="552"/>
      <point x="304" y="585" type="curve" smooth="yes"/>
      <point x="304" y="620"/>
      <point x="277" y="650"/>
      <point x="242" y="650" type="curve" smooth="yes"/>
      <point x="209" y="650"/>
      <point x="179" y="620"/>
      <point x="179" y="585" type="curve" smooth="yes"/>
      <point x="179" y="552"/>
      <point x="209" y="524"/>
    </contour>
    <contour>
      <point x="110" y="0" type="curve" smooth="yes"/>
      <point x="129" y="0"/>
      <point x="155" y="9"/>
      <point x="163" y="43" type="curve" smooth="yes"/>
      <point x="254" y="410" type="line" smooth="yes"/>
      <point x="266" y="457"/>
      <point x="239" y="474"/>
      <point x="208" y="474" type="curve" smooth="yes"/>
      <point x="189" y="474"/>
      <point x="164" y="465"/>
      <point x="155" y="430" type="curve" smooth="yes"/>
      <point x="64" y="63" type="line" smooth="yes"/>
      <point x="53" y="17"/>
      <point x="79" y="0"/>
    </contour>
  </outline>
</glyph>
<glyph name="brokenbar" format="2">
  <advance width="280"/>
  <unicode hex="00A6"/>
  <outline>
    <contour>
      <point x="169" y="260" type="curve" smooth="yes"/>
      <point x="211" y="260"/>
      <point x="220" y="286"/>
      <point x="225" y="305" type="curve" smooth="yes"/>
      <point x="304" y="634" type="line" smooth="yes"/>
      <point x="315" y="679"/>
      <point x="293" y="700"/>
      <point x="260" y="700" type="curve" smooth="yes"/>
      <point x="226" y="700"/>
      <point x="210" y="684"/>
      <point x="203" y="655" type="curve" smooth="yes"/>
      <point x="122" y="323" type="line" smooth="yes"/>
      <point x="114" y="290"/>
      <point x="130" y="260"/>
    </contour>
    <contour>
      <point x="30" y="-299" type="curve" smooth="yes"/>
      <point x="72" y="-299"/>
      <point x="82" y="-273"/>
      <point x="86" y="-255" type="curve" smooth="yes"/>
      <point x="165" y="75" type="line" smooth="yes"/>
      <point x="176" y="120"/>
      <point x="154" y="141"/>
      <point x="121" y="141" type="curve" smooth="yes"/>
      <point x="87" y="141"/>
      <point x="71" y="125"/>
      <point x="64" y="96" type="curve" smooth="yes"/>
      <point x="-17" y="-237" type="line" smooth="yes"/>
      <point x="-25" y="-270"/>
      <point x="-9" y="-299"/>
    </contour>
  </outline>
</glyph>
<glyph name="plusminus" format="2">
  <advance width="426"/>
  <unicode hex="00B1"/>
  <outline>
    <contour>
      <point x="229" y="206" type="curve" smooth="yes"/>
      <point x="247.0" y="206.0"/>
      <point x="267.0" y="214.0"/>
      <point x="274" y="243" type="curve" smooth="yes"/>
      <point x="328" y="465" type="line" smooth="yes"/>
      <point x="336.0" y="500"/>
      <point x="312" y="520.0"/>
      <point x="291" y="520" type="curve" smooth="yes"/>
      <point x="274.0" y="520.0"/>
      <point x="252.0" y="515"/>
      <point x="245" y="486" type="curve" smooth="yes"/>
      <point x="191" y="263" type="line"/>
      <point x="183.0" y="225.0"/>
      <point x="208.0" y="206.0"/>
    </contour>
    <contour>
      <point x="144" y="322" type="curve" smooth="yes"/>
      <point x="371" y="322" type="line" smooth="yes"/>
      <point x="405.0" y="322.0"/>
      <point x="417.0" y="346.0"/>
      <point x="417" y="365" type="curve" smooth="yes"/>
      <point x="417.0" y="385.0"/>
      <point x="405.0" y="408.0"/>
      <point x="371" y="408" type="curve" smooth="yes"/>
      <point x="144" y="408" type="line" smooth="yes"/>
      <point x="110.0" y="408.0"/>
      <point x="98.0" y="385.0"/>
      <point x="98" y="365" type="curve" smooth="yes"/>
      <point x="98.0" y="345.0"/>
      <point x="110.0" y="322.0"/>
    </contour>
    <contour>
      <point x="100" y="100" type="curve" smooth="yes"/>
      <point x="327" y="100" type="line" smooth="yes"/>
      <point x="361.0" y="100.0"/>
      <point x="373.0" y="124"/>
      <point x="373" y="143" type="curve" smooth="yes"/>
      <point x="373.0" y="163.0"/>
      <point x="361.0" y="186.0"/>
      <point x="327" y="186" type="curve" smooth="yes"/>
      <point x="100" y="186" type="line" smooth="yes"/>
      <point x="66.0" y="186.0"/>
      <point x="54.0" y="163.0"/>
      <point x="54" y="143" type="curve" smooth="yes"/>
      <point x="54.0" y="123"/>
      <point x="66.0" y="100.0"/>
    </contour>
  </outline>
</glyph>
<glyph name="questiondown" format="2">
  <advance width="456"/>
  <unicode hex="00BF"/>
  <outline>
    <contour>
      <point x="201" y="0" type="curve" smooth="yes"/>
      <point x="301" y="0"/>
      <point x="381" y="63"/>
      <point x="408" y="168" type="curve" smooth="yes"/>
      <point x="419" y="214"/>
      <point x="393" y="232"/>
      <point x="363" y="232" type="curve" smooth="yes"/>
      <point x="343" y="232"/>
      <point x="319" y="223"/>
      <point x="309" y="188" type="curve" smooth="yes"/>
      <point x="296" y="133"/>
      <point x="260" y="96"/>
      <point x="208" y="96" type="curve" smooth="yes"/>
      <point x="160" y="96"/>
      <point x="139" y="138"/>
      <point x="151" y="187" type="curve" smooth="yes"/>
      <point x="167" y="252"/>
      <point x="214" y="300"/>
      <point x="276" y="300" type="curve" smooth="yes"/>
      <point x="325" y="300"/>
      <point x="340" y="314"/>
      <point x="348" y="347" type="curve" smooth="yes"/>
      <point x="364" y="411" type="line" smooth="yes"/>
      <point x="376" y="458"/>
      <point x="349" y="475"/>
      <point x="318" y="475" type="curve" smooth="yes"/>
      <point x="299" y="475"/>
      <point x="273" y="466"/>
      <point x="265" y="431" type="curve" smooth="yes"/>
      <point x="251" y="373" type="line"/>
      <point x="277" y="394" type="line"/>
      <point x="169" y="394"/>
      <point x="79" y="318"/>
      <point x="51" y="203" type="curve" smooth="yes"/>
      <point x="22" y="85"/>
      <point x="88" y="0"/>
    </contour>
    <contour>
      <point x="349" y="524" type="curve" smooth="yes"/>
      <point x="384" y="524"/>
      <point x="411" y="552"/>
      <point x="411" y="585" type="curve" smooth="yes"/>
      <point x="411" y="620"/>
      <point x="384" y="650"/>
      <point x="349" y="650" type="curve" smooth="yes"/>
      <point x="316" y="650"/>
      <point x="286" y="620"/>
      <point x="286" y="585" type="curve" smooth="yes"/>
      <point x="286" y="552"/>
      <point x="316" y="524"/>
    </contour>
  </outline>
</glyph>
<glyph name="tilde" format="2">
  <advance width="500"/>
  <unicode hex="02DC"/>
  <outline>
    <contour>
      <point x="197" y="420.0" type="curve" smooth="yes"/>
      <point x="210.0" y="406.0"/>
      <point x="231.0" y="405.99999999999994"/>
      <point x="246" y="421.0" type="curve" smooth="yes"/>
      <point x="255.00000000000003" y="430.0"/>
      <point x="269.0" y="436.0"/>
      <point x="281" y="436.0" type="curve" smooth="yes"/>
      <point x="303.0" y="436.0"/>
      <point x="333.0" y="409.0"/>
      <point x="363" y="409.0" type="curve" smooth="yes"/>
      <point x="394.0" y="409.0"/>
      <point x="427.0" y="423.0"/>
      <point x="450" y="446.0" type="curve" smooth="yes"/>
      <point x="466.0" y="463.0"/>
      <point x="467.0" y="487.0"/>
      <point x="453" y="503.0" type="curve" smooth="yes"/>
      <point x="439.0" y="518.0"/>
      <point x="418.0" y="517.0"/>
      <point x="404" y="502.0" type="curve" smooth="yes"/>
      <point x="395.0" y="493.0"/>
      <point x="382.0" y="487.0"/>
      <point x="370" y="487.0" type="curve" smooth="yes"/>
      <point x="348.0" y="487.0"/>
      <point x="318.99999999999994" y="514.0"/>
      <point x="287" y="514.0" type="curve" smooth="yes"/>
      <point x="256.0" y="514.0"/>
      <point x="223.0" y="500.0"/>
      <point x="201" y="477.0" type="curve" smooth="yes"/>
      <point x="185.00000000000003" y="460.0"/>
      <point x="183.0" y="436.0"/>
    </contour>
  </outline>
</glyph>
<glyph name="emdash" format="2">
  <advance width="555"/>
  <unicode hex="2014"/>
  <outline>
    <contour>
      <point x="120" y="154" type="curve" smooth="yes"/>
      <point x="438" y="154" type="line" smooth="yes"/>
      <point x="474.0" y="154.0"/>
      <point x="496" y="172"/>
      <point x="496" y="200" type="curve" smooth="yes"/>
      <point x="496" y="227"/>
      <point x="477.0" y="244.0"/>
      <point x="447" y="244" type="curve" smooth="yes"/>
      <point x="129" y="244" type="line" smooth="yes"/>
      <point x="93" y="244"/>
      <point x="71" y="226"/>
      <point x="71" y="198" type="curve" smooth="yes"/>
      <point x="71" y="171"/>
      <point x="90" y="154"/>
    </contour>
  </outline>
</glyph>
<glyph name="bullet" format="2">
  <advance width="330"/>
  <unicode hex="2022"/>
  <outline>
    <contour>
      <point x="210" y="258" type="curve" smooth="yes"/>
      <point x="259" y="258"/>
      <point x="306" y="304"/>
      <point x="306" y="355" type="curve" smooth="yes"/>
      <point x="306" y="407"/>
      <point x="260" y="450"/>
      <point x="210" y="450" type="curve" smooth="yes"/>
      <point x="157" y="450"/>
      <point x="116" y="406"/>
      <point x="116" y="355" type="curve" smooth="yes"/>
      <point x="116" y="305"/>
      <point x="157" y="258"/>
    </contour>
  </outline>
</glyph>
<glyph name="lessequal" format="2">
  <advance width="426"/>
  <unicode hex="2264"/>
  <outline>
    <contour>
      <point x="88" y="106" type="curve" smooth="yes"/>
      <point x="315" y="106" type="line" smooth="yes"/>
      <point x="349.0" y="106.0"/>
      <point x="361.0" y="130"/>
      <point x="361" y="149" type="curve" smooth="yes"/>
      <point x="361.0" y="169.0"/>
      <point x="349.0" y="192.0"/>
      <point x="315" y="192" type="curve" smooth="yes"/>
      <point x="88" y="192" type="line" smooth="yes"/>
      <point x="54.0" y="192.0"/>
      <point x="42.0" y="169.0"/>
      <point x="42" y="149" type="curve" smooth="yes"/>
      <point x="42.0" y="129"/>
      <point x="54.0" y="106.0"/>
    </contour>
    <contour>
      <point x="117" y="221" type="curve" smooth="yes"/>
      <point x="323" y="221" type="line" smooth="yes"/>
      <point x="356.0" y="221.0"/>
      <point x="369.0" y="244.0"/>
      <point x="369" y="264" type="curve" smooth="yes"/>
      <point x="369.0" y="283.0"/>
      <point x="357.0" y="307.0"/>
      <point x="323" y="307" type="curve" smooth="yes"/>
      <point x="191" y="307" type="line"/>
      <point x="202" y="281" type="line"/>
      <point x="344" y="343" type="line" smooth="yes"/>
      <point x="375.0" y="356.0"/>
      <point x="375" y="388.0"/>
      <point x="360" y="408" type="curve" smooth="yes"/>
      <point x="347.0" y="425.0"/>
      <point x="328" y="432.0"/>
      <point x="299" y="416" type="curve" smooth="yes"/>
      <point x="95" y="302" type="line" smooth="yes"/>
      <point x="77.0" y="292"/>
      <point x="71.0" y="278.0"/>
      <point x="71" y="264" type="curve" smooth="yes"/>
      <point x="71.0" y="245.0"/>
      <point x="83.0" y="221.0"/>
    </contour>
  </outline>
</glyph>
<glyph name=".notdef" format="2">
  <advance width="642"/>
  <outline>
    <contour>
      <point x="104" y="0" type="curve" smooth="yes"/>
      <point x="469" y="0" type="line" smooth="yes"/>
      <point x="488" y="0"/>
      <point x="511" y="16"/>
      <point x="518" y="45" type="curve" smooth="yes"/>
      <point x="667" y="641" type="line" smooth="yes"/>
      <point x="677" y="679"/>
      <point x="654" y="700"/>
      <point x="624" y="700" type="curve" smooth="yes"/>
      <point x="259" y="700" type="line" smooth="yes"/>
      <point x="230" y="700"/>
      <point x="211" y="683"/>
      <point x="203" y="654" type="curve" smooth="yes"/>
      <point x="55" y="59" type="line" smooth="yes"/>
      <point x="47" y="29"/>
      <point x="61" y="0"/>
    </contour>
    <contour>
      <point x="158" y="62" type="line"/>
      <point x="301" y="624" type="line"/>
      <point x="274" y="603" type="line"/>
      <point x="590" y="603" type="line"/>
      <point x="564" y="638" type="line"/>
      <point x="422" y="76" type="line"/>
      <point x="449" y="97" type="line"/>
      <point x="132" y="97" type="line"/>
    </contour>
  </outline>
</glyph>
